<svg width="150" height="150" viewBox="0 0 150 150" fill="none" xmlns="http://www.w3.org/2000/svg">
<path d="M75 0C95.3823 0 112.388 14.4545 116.327 33.6719C135.545 37.6105 150 54.6173 150 75C150 95.3826 135.545 112.388 116.327 116.327C112.388 135.545 95.3826 150 75 150C54.6173 150 37.6105 135.545 33.6719 116.327C14.4545 112.388 0 95.3823 0 75C0 54.6176 14.4544 37.6108 33.6719 33.6719C37.6108 14.4544 54.6176 0 75 0Z" fill="#7079FB" fill-opacity="0.6"/>
<path d="M107.812 32.8125C110.729 32.8125 113.577 33.1083 116.327 33.6719C116.891 36.4224 117.188 39.2703 117.188 42.1875C117.188 55.4417 111.073 67.2659 101.514 75C111.073 82.7341 117.188 94.5583 117.188 107.812C117.188 110.729 116.891 113.577 116.327 116.327C113.577 116.891 110.729 117.188 107.812 117.188C94.5583 117.188 82.7341 111.073 75 101.514C67.2659 111.073 55.4417 117.188 42.1875 117.188C39.2703 117.188 36.4224 116.891 33.6719 116.327C33.1083 113.577 32.8125 110.729 32.8125 107.812C32.8125 94.5585 38.9261 82.7341 48.4854 75C38.9261 67.2659 32.8125 55.4415 32.8125 42.1875C32.8125 39.2704 33.1081 36.4223 33.6719 33.6719C36.4223 33.1081 39.2704 32.8125 42.1875 32.8125C55.4415 32.8125 67.2659 38.9261 75 48.4854C82.7341 38.9261 94.5585 32.8125 107.812 32.8125Z" fill="#7079FB"/>
<path d="M75.0002 48.4805C79.1609 53.6223 82.1368 59.7618 83.5146 66.4839C90.2369 67.8616 96.3765 70.8379 101.518 74.9987C96.3765 79.1595 90.2369 82.1354 83.5146 83.5131C82.1368 90.2352 79.1609 96.3746 75.0002 101.517C70.8395 96.3746 67.8632 90.2352 66.4854 83.5131C59.7634 82.1353 53.6242 79.1593 48.4824 74.9987C53.6242 70.8381 59.7634 67.8617 66.4854 66.4839C67.8632 59.7617 70.8395 53.6223 75.0002 48.4805Z" fill="#FCFF91"/>
</svg>
